<svg id="Layer_1" data-name="Layer 1" xmlns="http://www.w3.org/2000/svg" viewBox="0 0 494 109.99"><defs><style>.cls-1,.cls-4{fill:#6d28d9;}.cls-2{fill:#a36bff;}.cls-3{fill:#fff;}.cls-4{font-size:81.38px;font-family:Inter-ExtraBold, Inter;font-weight:800;}</style></defs><path class="cls-1" d="M195.43,105.55H54.28A51.27,51.27,0,0,1,3,54.28H3A51.28,51.28,0,0,1,54.28,3h89.88a51.27,51.27,0,0,1,51.27,51.28Z" transform="translate(-3 -3)"/><path class="cls-2" d="M141.23,92h-84A37.74,37.74,0,0,1,19.47,54.28h0A37.73,37.73,0,0,1,57.21,16.54h84A37.74,37.74,0,0,1,179,54.28h0A37.75,37.75,0,0,1,141.23,92Z" transform="translate(-3 -3)"/><circle cx="62.03" cy="51.06" r="17.09"/><circle cx="130.4" cy="51.48" r="17.09"/><circle class="cls-3" cx="55.71" cy="43.36" r="3.17"/><circle class="cls-3" cx="123.44" cy="43.99" r="3.17"/><text class="cls-4" transform="translate(196.9 83.64)">Chatify</text></svg>